<svg width="427" height="136" viewBox="0 0 427 136" fill="none" xmlns="http://www.w3.org/2000/svg">
<path d="M12.0819 122.458V13.5195C12.0819 10.5059 10.8859 7.61573 8.75702 5.4848C6.62813 3.35388 3.74075 2.15674 0.730055 2.15674C0.547828 2.15674 0.373062 2.08427 0.244208 1.9553C0.115355 1.82632 0.0429688 1.65139 0.0429688 1.46899C0.0429688 1.28659 0.115355 1.11166 0.244208 0.982683C0.373062 0.853706 0.547828 0.78125 0.730055 0.78125H43.64C43.8222 0.78125 43.997 0.853706 44.1258 0.982683C44.2547 1.11166 44.3271 1.28659 44.3271 1.46899C44.3271 1.65139 44.2547 1.82632 44.1258 1.9553C43.997 2.08427 43.8222 2.15674 43.64 2.15674C40.6293 2.15674 37.7419 3.35388 35.613 5.4848C33.4842 7.61573 32.2882 10.5059 32.2882 13.5195V122.458C32.2882 125.472 33.4842 128.362 35.613 130.493C37.7419 132.624 40.6293 133.821 43.64 133.821C43.8222 133.821 43.997 133.893 44.1258 134.022C44.2547 134.151 44.3271 134.326 44.3271 134.508C44.3271 134.691 44.2547 134.866 44.1258 134.995C43.997 135.124 43.8222 135.196 43.64 135.196H31.6429H12.769H0.736026C0.5538 135.196 0.379038 135.124 0.250184 134.995C0.121331 134.866 0.0489447 134.691 0.0489447 134.508C0.0489447 134.326 0.121331 134.151 0.250184 134.022C0.379038 133.893 0.5538 133.821 0.736026 133.821C3.74569 133.819 6.63154 132.621 8.75913 130.491C10.8867 128.36 12.0819 125.471 12.0819 122.458Z" fill="#4F6650"/>
<path d="M53.7539 1.50515C53.7531 1.41461 53.7704 1.32483 53.8046 1.24103C53.8389 1.15722 53.8894 1.08109 53.9534 1.01707C54.0174 0.953049 54.0934 0.902417 54.1771 0.868137C54.2609 0.833857 54.3506 0.816612 54.441 0.817409H66.474H66.5277H86.5607H86.6265H98.6833C98.8655 0.817409 99.0403 0.889865 99.1692 1.01884C99.298 1.14782 99.3704 1.32275 99.3704 1.50515C99.3704 1.68755 99.298 1.86249 99.1692 1.99147C99.0403 2.12044 98.8655 2.1929 98.6833 2.1929H93.9872C93.2802 2.14647 92.5727 2.27557 91.9275 2.56874C91.2823 2.86191 90.7194 3.31007 90.2889 3.87338C89.4704 5.06946 89.3868 6.78583 90.0679 8.5919L122.725 94.5479C123.063 95.4387 123.663 96.2057 124.446 96.7469C125.23 97.2881 126.159 97.5779 127.111 97.5779C128.062 97.5779 128.992 97.2881 129.775 96.7469C130.558 96.2057 131.159 95.4387 131.496 94.5479L164.171 8.59788C164.859 6.80377 164.769 5.06348 163.956 3.87338C163.527 3.30927 162.964 2.86053 162.319 2.56727C161.673 2.27402 160.965 2.1454 160.258 2.1929H155.562C155.38 2.1929 155.205 2.12044 155.076 1.99147C154.947 1.86249 154.875 1.68755 154.875 1.50515C154.875 1.32275 154.947 1.14782 155.076 1.01884C155.205 0.889865 155.38 0.817409 155.562 0.817409H179.634C179.816 0.817409 179.991 0.889865 180.12 1.01884C180.249 1.14782 180.321 1.32275 180.321 1.50515C180.321 1.68755 180.249 1.86249 180.12 1.99147C179.991 2.12044 179.816 2.1929 179.634 2.1929H174.92C171.138 2.1929 166.896 5.27877 165.444 9.07631L127.732 108.267L117.659 134.754C117.609 134.884 117.521 134.997 117.407 135.076C117.292 135.155 117.156 135.197 117.017 135.197C116.877 135.197 116.741 135.155 116.626 135.076C116.512 134.997 116.424 134.884 116.374 134.754L68.6248 9.09425C67.179 5.29073 62.925 2.1929 59.1431 2.1929H54.4709C54.3786 2.19528 54.2867 2.17933 54.2006 2.14599C54.1145 2.11264 54.0359 2.06255 53.9692 1.9986C53.9025 1.93466 53.8492 1.85813 53.8123 1.77343C53.7753 1.68874 53.7555 1.59755 53.7539 1.50515Z" fill="#4F6650"/>
<path d="M260.172 133.821H255.482C251.7 133.821 247.452 130.729 246 126.926C244.149 123.733 242.854 120.249 242.171 116.621C241.34 112.112 241.693 108.452 240.564 108.207C239.626 107.998 238.95 110.462 235.533 113.739C233.621 115.569 232.121 116.807 230.078 116.909C228.035 117.01 226.392 115.162 226.117 114.845C224.731 113.243 224.528 111.287 224.504 109.529C224.438 104.744 225.734 102.418 227.055 96.8862C228.074 93.0633 228.578 89.1213 228.554 85.1647C228.486 82.1827 227.904 79.2349 226.834 76.4512V76.4154L198.245 1.25996C198.197 1.12925 198.11 1.01658 197.995 0.937359C197.881 0.858142 197.745 0.816245 197.606 0.817406C197.466 0.817562 197.33 0.859893 197.215 0.938855C197.1 1.01782 197.011 1.12974 196.961 1.25996L190.747 17.6163L186.893 27.747L149.175 126.95C147.717 130.741 143.475 133.821 139.699 133.821H135.009C134.827 133.821 134.652 133.893 134.524 134.022C134.395 134.151 134.322 134.326 134.322 134.509C134.322 134.691 134.395 134.866 134.524 134.995C134.652 135.124 134.827 135.197 135.009 135.197H159.075C159.257 135.197 159.432 135.124 159.561 134.995C159.69 134.866 159.762 134.691 159.762 134.509C159.762 134.326 159.69 134.151 159.561 134.022C159.432 133.893 159.257 133.821 159.075 133.821H154.379C153.672 133.868 152.964 133.739 152.319 133.446C151.674 133.153 151.111 132.704 150.681 132.141C149.856 130.944 149.785 129.222 150.472 127.404L160.402 101.288C160.739 100.397 161.34 99.6301 162.123 99.0887C162.906 98.5472 163.835 98.2567 164.787 98.2557H208.671C211.377 98.2557 214.305 100.391 215.339 103.112L224.563 127.404C225.245 129.198 225.161 130.932 224.342 132.117C223.913 132.682 223.351 133.132 222.705 133.426C222.06 133.72 221.352 133.85 220.644 133.803H215.954C215.859 133.794 215.763 133.805 215.672 133.836C215.581 133.866 215.498 133.915 215.427 133.979C215.357 134.044 215.3 134.122 215.261 134.21C215.223 134.297 215.203 134.392 215.203 134.488C215.203 134.584 215.223 134.678 215.261 134.766C215.3 134.853 215.357 134.932 215.427 134.996C215.498 135.061 215.581 135.11 215.672 135.14C215.763 135.17 215.859 135.182 215.954 135.173H227.987H228.053H248.08H248.133H260.166C260.262 135.182 260.358 135.17 260.448 135.14C260.539 135.11 260.622 135.061 260.693 134.996C260.764 134.932 260.82 134.853 260.859 134.766C260.897 134.678 260.917 134.584 260.917 134.488C260.917 134.392 260.897 134.297 260.859 134.21C260.82 134.122 260.764 134.044 260.693 133.979C260.622 133.915 260.539 133.866 260.448 133.836C260.358 133.805 260.262 133.794 260.166 133.803L260.172 133.821ZM211.18 95.7619C210.884 96.142 210.5 96.4433 210.06 96.6394C209.62 96.8355 209.139 96.9202 208.659 96.8862H168.868C168.107 96.8868 167.358 96.7023 166.685 96.3486C166.011 95.9948 165.434 95.4825 165.002 94.8557C164.571 94.2289 164.298 93.5065 164.207 92.7506C164.117 91.9948 164.211 91.2283 164.482 90.5171L183.129 41.478C183.468 40.5877 184.069 39.8216 184.853 39.281C185.637 38.7404 186.566 38.4509 187.518 38.4509C188.469 38.4509 189.399 38.7404 190.182 39.281C190.966 39.8216 191.567 40.5877 191.906 41.478L211.3 92.5265C211.796 93.7944 211.754 94.9426 211.192 95.7619H211.18Z" fill="#4F6650"/>
<path d="M230.754 107.328C230.534 107.109 230.36 106.849 230.242 106.563C230.124 106.276 230.065 105.969 230.066 105.659C230.12 100.139 231.166 93.824 233.209 86.7911C235.274 79.6303 237.871 72.6338 240.976 65.8598C243.843 59.4174 247.19 53.2002 250.99 47.2608C256.48 38.7926 261.409 34.3133 265.783 33.8887C267.994 33.8887 269.087 35.318 269.063 38.1766C269.039 41.0352 267.659 45.0182 264.994 49.9819C261.842 55.6557 258.351 61.1338 254.539 66.3861C250.291 72.4023 245.696 78.4784 240.749 84.692C236.86 89.578 234.774 92.2213 234.506 92.4665C233.06 97.5737 232.319 102.025 232.283 105.821C232.337 106.419 232.45 106.682 232.683 106.688C232.916 106.694 233.502 106.293 234.267 105.438C235.042 104.552 235.77 103.626 236.447 102.663C237.152 101.67 237.684 100.947 237.983 100.48C241.048 95.9172 243.575 93.6805 245.553 93.6984C247.184 93.6984 248.223 94.1888 248.797 95.1935C249.364 96.3293 249.634 97.5909 249.58 98.8595C249.58 99.7924 249.58 100.654 249.496 101.317L249.424 102.783C249.419 103.452 249.473 104.12 249.586 104.78C249.639 105.247 250.183 105.516 251.091 105.528C254.079 105.528 258.906 103.805 265.574 100.337L278.628 92.4067C279.154 92.4067 279.441 92.616 279.441 93.0047V93.3336C279.441 93.537 279.381 93.6028 279.208 93.5968C278.383 94.1908 275.864 95.7657 271.65 98.3213C262.288 104.021 255.393 106.885 251.085 106.843C249.992 106.861 248.926 106.499 248.068 105.821C247.409 105.24 246.948 104.469 246.748 103.614C246.565 102.692 246.477 101.755 246.485 100.815C246.493 100.237 246.537 99.6597 246.616 99.0868C246.676 98.4887 246.742 97.9565 246.748 97.4242C246.75 96.864 246.696 96.3051 246.586 95.7557C246.533 95.2952 246.186 95.0919 245.547 95.0859C244.495 95.0859 243.384 95.7318 242.267 96.9817C240.748 98.7489 239.332 100.602 238.025 102.531L235.665 105.839C234.428 107.358 233.436 108.081 232.558 108.069C232.222 108.08 231.888 108.019 231.577 107.891C231.266 107.763 230.985 107.571 230.754 107.328ZM254.437 64.2331C263.347 51.3394 267.832 42.6659 267.892 38.2125C267.892 36.2808 267.217 35.2761 265.819 35.2642C264.026 35.2642 261.792 36.9566 259.079 40.4551C255.796 44.7378 252.892 49.298 250.398 54.0844C247.178 59.9234 244.283 65.937 241.729 72.0973C239.271 77.7392 237.138 83.5178 235.342 89.4045C241.699 81.8812 248.064 73.4907 254.437 64.2331Z" fill="#AAB488"/>
<path d="M277.325 100.439C276.921 100.043 276.61 99.5628 276.414 99.0323C276.218 98.5018 276.141 97.9344 276.19 97.3708C276.219 95.7972 276.676 94.2611 277.511 92.9274C278.092 91.6827 279.09 90.6802 280.331 90.0927C280.517 90.0688 280.707 90.0894 280.884 90.1528C281.062 90.2162 281.222 90.3207 281.351 90.4577C281.48 90.5947 281.575 90.7604 281.629 90.9412C281.682 91.122 281.692 91.3128 281.657 91.4981C281.672 91.7627 281.587 92.0233 281.418 92.2277C279.363 94.1414 278.299 95.9953 278.281 97.8552C278.266 98.3945 278.402 98.9272 278.676 99.3922C278.799 99.6166 278.985 99.8001 279.211 99.9201C279.437 100.04 279.693 100.092 279.948 100.068C280.378 100.09 280.808 100.022 281.21 99.8685C281.612 99.7151 281.978 99.4796 282.284 99.1769C282.965 98.4941 283.541 97.7142 283.993 96.8625C282.894 96.2644 282.32 95.1162 282.338 93.4536C282.338 91.9885 283.001 91.199 284.34 91.0615C285.535 91.0615 286.132 91.9406 286.132 93.6032C286.103 94.4004 285.939 95.1869 285.648 95.9295C286.866 96.5695 288.222 96.9021 289.597 96.8984C295.28 96.7749 300.946 96.2272 306.547 95.2597C311.925 94.3089 315.587 93.4656 317.517 92.7659C317.618 92.7499 317.721 92.7578 317.818 92.7889C317.915 92.82 318.003 92.8735 318.076 92.9451C318.148 93.0166 318.203 93.1043 318.236 93.2009C318.269 93.2975 318.278 93.4005 318.264 93.5015V93.5673C318.264 93.968 316.686 94.554 313.592 95.2537C310.497 95.9535 306.828 96.6591 302.455 97.2811C298.191 97.9154 293.889 98.2531 289.579 98.2918C288.037 98.2998 286.51 97.9904 285.092 97.3828C283.844 100.098 282.141 101.479 279.93 101.455C278.965 101.458 278.034 101.095 277.325 100.439ZM284.895 93.657C284.895 92.7958 284.674 92.3951 284.298 92.3891C284.125 92.3891 284.065 92.7181 283.999 93.4477C283.974 93.7785 284.022 94.1108 284.139 94.4209C284.257 94.731 284.442 95.0113 284.68 95.2418C284.828 94.7268 284.901 94.1929 284.895 93.657Z" fill="#AAB488"/>
<path d="M318.742 97.3825C322.817 91.0314 326.28 87.8697 329.132 87.8976C331.17 88.0531 332.12 89.3927 332.12 91.9164C332.05 94.1759 331.574 96.4042 330.716 98.4949C333.661 94.8588 336.242 93.0228 338.483 93.0408C339.26 93.06 340.024 93.2456 340.724 93.5849C341.424 93.9243 342.043 94.4096 342.539 95.0083C343.429 96.2026 344.16 97.5072 344.714 98.8896C345.123 99.9486 345.66 100.953 346.315 101.88C346.601 102.312 346.984 102.671 347.433 102.928C347.882 103.186 348.386 103.335 348.902 103.363C352.451 103.393 357.643 101.778 364.604 98.453C368.29 96.6888 371.678 94.9904 374.665 93.286C374.78 93.2761 374.896 93.2895 375.006 93.3255C375.116 93.3614 375.217 93.4192 375.304 93.4953C375.379 93.7311 375.416 93.9775 375.412 94.2249C375.352 94.3564 375.292 94.4222 375.239 94.4222C375.172 94.5023 375.091 94.5693 375 94.6196C374.745 94.8517 374.446 95.0306 374.121 95.1459C373.47 95.4161 372.844 95.7443 372.251 96.1266C370.262 97.3227 367.86 98.5188 365.118 99.8524C358.217 103.183 352.786 104.792 348.884 104.756C345.861 104.756 343.77 103.913 342.683 102.239C341.744 100.759 341.033 99.146 340.574 97.4543C340.373 96.6971 340.107 95.9587 339.779 95.2475C339.663 95.008 339.482 94.8056 339.257 94.6631C339.033 94.5205 338.773 94.4433 338.507 94.4402C336.236 94.4402 333.064 97.1194 329.001 102.603C328.901 102.804 328.751 102.976 328.566 103.103C328.381 103.23 328.167 103.307 327.943 103.327C327.542 103.276 327.175 103.075 326.916 102.765C326.756 102.621 326.628 102.446 326.539 102.251C326.451 102.055 326.404 101.843 326.402 101.629C326.48 101.181 326.642 100.753 326.88 100.367C329.078 95.4628 330.154 92.1497 330.172 90.4213C330.172 89.62 329.831 89.2253 329.132 89.2253C327.794 89.2253 326.276 90.0625 324.627 91.8447C322.872 93.7447 321.291 95.7982 319.901 97.9806C318.426 100.373 317.183 102.478 316.173 104.266C315.595 105.249 315.08 106.267 314.632 107.316C314.547 107.532 314.403 107.72 314.218 107.859C314.032 107.999 313.811 108.084 313.58 108.105C312.983 108.105 312.714 107.561 312.66 106.562C313.159 103.819 313.845 101.114 314.715 98.465C315.457 95.8929 316.355 93.3685 317.404 90.9058C318.001 90.0446 318.641 89.6499 319.34 89.6618C320.326 89.7336 320.845 90.2061 320.839 91.0732C320.823 91.3534 320.741 91.6258 320.6 91.8686C319.26 94.5418 318.064 97.2847 317.016 100.086C317.267 99.679 317.858 98.8238 318.742 97.3825Z" fill="#AAB488"/>
<path d="M372.323 99.1285C372.299 97.0575 372.885 95.0253 374.008 93.2856C374.522 92.4882 375.221 91.8277 376.047 91.361C376.872 90.8942 377.798 90.6353 378.746 90.6064C379.312 90.615 379.861 90.8058 380.311 91.1506C380.539 91.3344 380.72 91.5694 380.839 91.8365C380.958 92.1037 381.013 92.3953 380.998 92.6876C381.041 93.3612 380.87 94.0311 380.509 94.6015C380.149 95.1719 379.617 95.6135 378.991 95.8632C377.764 96.4351 376.43 96.7389 375.077 96.7543C374.945 97.4783 374.881 98.2131 374.886 98.9491C374.799 100.22 375.179 101.479 375.956 102.489C376.301 102.925 376.742 103.274 377.245 103.51C377.748 103.745 378.298 103.861 378.853 103.847C382.033 103.854 385.196 103.388 388.239 102.466C391.709 101.497 395.09 100.239 398.349 98.7039C401.796 97.137 405.19 95.5044 408.637 93.6744C408.819 93.6891 408.997 93.7356 409.163 93.8119C409.336 93.8837 409.449 94.081 409.449 94.41C409.448 94.5227 409.426 94.6342 409.384 94.7389C409.365 94.7888 409.333 94.833 409.293 94.8675C409.252 94.902 409.203 94.9257 409.151 94.9362C409.091 95.002 408.039 95.5941 406.05 96.6406C404.06 97.6872 401.545 98.8594 398.45 100.229C395.239 101.608 391.942 102.777 388.58 103.727C385.427 104.712 382.144 105.22 378.841 105.234C374.671 105.205 372.538 103.189 372.323 99.1285ZM378.357 94.7269C378.774 94.5699 379.133 94.2894 379.386 93.9228C379.639 93.5563 379.774 93.1212 379.773 92.6757C379.773 92.2092 379.433 92.0058 378.734 91.9999C377.336 91.9999 376.218 93.1062 375.442 95.4326C376.457 95.3953 377.454 95.1554 378.375 94.7269H378.357Z" fill="#AAB488"/>
<path d="M426.358 69.1256C425.659 68.695 422.773 71.6732 419.535 74.9864C414.946 79.7228 412.652 82.0911 410.668 85.4281C407.633 90.5353 406.366 95.6306 406.791 95.7562C407.042 95.828 407.8 94.1654 409.999 91.0796C411.791 88.5977 412.502 87.9698 414.844 85.0992C418.585 80.4763 420.449 77.4622 420.58 77.528C420.712 77.5938 418.573 82.4379 414.605 87.4973C410.961 92.1321 407.609 94.7336 407.968 95.2718C408.326 95.81 412.024 93.4777 412.234 93.382C414.779 91.766 417.026 89.7227 418.877 87.3418C420.145 85.7083 421.218 83.9321 422.074 82.0492C422.715 80.5232 423.25 78.9546 423.675 77.3546C425.539 71.452 426.895 69.4545 426.358 69.1256Z" fill="#AAB488"/>
</svg>
